PathFileType	4	(X/Y/Z)	Patient4_TMGait_0pt2_01_right_22.trc.trc
DataRate	CameraRate	NumFrames	NumMarkers	Units	OrigDataRate	OrigDataStartFrame	OrigNumFrames
45.454545454545	45.454545454545	4	33	mm	45.454545454545	124	       141
Frame#	Time	Sacral			L.Shoulder			Chest			R.Shoulder			Neck			R.ASIS			L.ASIS			R.Thigh.Superior			R.Thigh.Lateral			R.Thigh.Inferior			R.Patella			L.Thigh.Superior			L.Thigh.Lateral			L.Thigh.Inferior			L.Patella			L.Shank.Superior			L.Shank.Lateral			L.Shank.Inferior			R.Shank.Superior			R.Shank.Lateral			R.Shank.Inferior			R.Heel			R.Midfoot.Superior			R.Midfoot.Lateral			R.Toe			L.Heel			L.Midfoot.Lateral			L.Midfoot.Superior			L.Toe			L.Elbow			L.Wrist			R.Elbow			R.Wrist			
		X1	Y1	Z1	X2	Y2	Z2	X3	Y3	Z3	X4	Y4	Z4	X5	Y5	Z5	X6	Y6	Z6	X7	Y7	Z7	X8	Y8	Z8	X9	Y9	Z9	X10	Y10	Z10	X11	Y11	Z11	X12	Y12	Z12	X13	Y13	Z13	X14	Y14	Z14	X15	Y15	Z15	X16	Y16	Z16	X17	Y17	Z17	X18	Y18	Z18	X19	Y19	Z19	X20	Y20	Z20	X21	Y21	Z21	X22	Y22	Z22	X23	Y23	Z23	X24	Y24	Z24	X25	Y25	Z25	X26	Y26	Z26	X27	Y27	Z27	X28	Y28	Z28	X29	Y29	Z29	X30	Y30	Z30	X31	Y31	Z31	X32	Y32	Z32	X33	Y33	Z33	

124	52.146000000000	791.718256770584	1005.665392961447	409.075134414083	1006.079557164576	1433.210351766225	274.662375027121	1067.549303731323	1364.132348912015	454.758350641301	950.939116003870	1438.445013828059	606.970848625594	951.702683360540	1495.583079636376	426.255805200418	994.744856383423	940.827800230257	570.538828452288	1032.761407393507	961.673280690351	297.589843842666	1062.018959510462	753.109233460933	544.228086741403	996.561858434131	635.437703032887	604.927380335982	1084.762171347978	592.354820053765	529.338729338584	1101.583502697215	507.731952054221	541.015581499822	1044.354327755795	734.990068540117	330.770158121418	947.312327500046	628.040338328772	255.307324795379	1004.914325177838	543.728538039671	331.008446885975	992.138342189261	477.578343118256	340.057153792944	962.194921183809	408.167387665325	328.743023401255	868.653211347466	300.109207748129	271.721889101216	901.002973551404	187.489685409881	350.267846431512	1081.577654284663	417.230662042378	552.936448989139	1020.258125706049	310.619707404867	621.851034275783	1076.169331728020	216.859971853658	567.276797084329	961.215772343251	40.164538092419	551.937830573096	1130.951653322373	103.985835808269	578.120032428275	1050.350293757450	36.322335276187	619.755305715909	1253.795272569183	61.653476829410	595.844666051240	760.485858491971	37.968568544785	386.240588570698	836.300514332783	34.889624651534	307.328652904292	919.305821293133	95.586059309271	337.262315977053	1048.151721913776	44.004242891920	310.788265353026	1172.029403619801	1153.804833443961	127.998485854333	1431.659829403848	1139.855757358837	154.251872096973	776.283335325480	1135.349163604139	677.560583373825	718.996657893432	879.553798355631	664.277183058838	
125	52.168000000000	795.033997944690	1005.133333918258	413.614445761288	1008.142697229133	1432.544290032030	279.264127931580	1069.975556604680	1363.817358141582	459.396507569299	953.467469627493	1438.200980175574	611.633164443758	953.803041085457	1495.033207678395	430.857322469259	998.182001504086	939.882467589876	574.696384290699	1035.937957531602	961.367057425197	301.882973126018	1064.855761348913	751.207395880367	547.053134896466	998.082941178282	633.695844476482	606.650376154458	1086.036222707833	590.585646314739	530.796517205059	1101.266415176973	505.850212661976	541.498685977503	1045.526946131510	733.762032565436	333.713042215101	946.533818533765	628.241684606238	258.075296379222	1003.148936962750	542.937287952997	333.085585514296	989.657227832360	476.928546983078	341.917807361533	959.409459896097	408.006779784515	330.365617644005	865.013462686165	300.761042814819	272.997117273873	897.086472275465	187.433851818247	350.708958774597	1081.304285659869	415.264375761073	553.211897813868	1019.970820579403	308.798009613178	621.882328598238	1074.476408926406	215.060386267696	566.275594104608	957.643884285476	40.672492050320	550.688504978634	1127.913450263100	102.010998516185	576.473435858523	1046.391899763383	36.456929965264	618.866526234098	1250.318464267573	58.081189127306	595.226920578964	756.124716078925	37.960414112331	386.269381230387	831.936150664451	34.893522425581	307.424769124765	915.004106863786	95.558896995191	337.305324638172	1043.807783410304	43.807982985752	310.751562882765	1174.471158434740	1153.713357048279	132.124057446716	1434.309082158917	1146.070233160272	157.176252742812	780.490895816039	1134.354707742972	683.115680831081	724.559221896773	878.240084796166	670.798508329707	
126	52.190000000000	798.476066079252	1004.717933586594	418.474277030625	1010.265845099175	1432.020839763155	283.978456527439	1072.566104948827	1363.634022501029	464.108300203900	956.193030895320	1438.047524689255	616.419093893072	956.013662559661	1494.592069362165	435.604554134733	1001.951827572917	939.201762745446	578.983766111493	1039.137857837013	961.094729564289	306.283879493970	1068.163546606869	749.711224491994	549.781361223754	1000.423022848550	632.341676955052	608.531537382782	1087.928376785431	589.139965243966	532.241377067669	1101.775003632060	504.111842570354	542.100754809082	1046.807269962427	732.571213687548	336.740449710040	945.829702670618	628.467405959250	261.085066209377	1001.629673575923	542.201064382047	335.328361539986	987.474536592052	476.296735101528	343.956073640583	956.835721662984	407.879262700502	332.154473243426	861.460711353978	301.543818388893	274.450220689684	893.254865699097	187.419586057273	351.195942032749	1081.432353518615	413.453992488392	553.577032952483	1019.784384330910	307.371606906940	622.173174915839	1072.323120537898	213.421979407073	565.457068829003	952.960369878355	41.360499043235	549.818806826491	1123.857009527502	100.380561968640	575.222981772090	1041.393671454982	36.763360269926	618.304693799237	1245.876419533556	54.791338614171	594.867217938944	751.786203568187	38.003264447684	386.322487550204	827.598731221029	34.935056303040	307.554316942303	910.762242789891	95.557483087541	337.349851152236	1039.494968235981	43.558797524009	310.708640691527	1176.618841329098	1153.347803961754	136.414584576250	1436.540946088697	1150.955759724194	160.249160071871	785.389291635451	1133.167592684582	689.344643309967	731.434058702697	876.622882832035	678.445452893256	
127	52.212000000000	801.939421640391	1004.468425537097	423.636485958946	1012.456927779509	1431.646272337039	288.733278609981	1075.311343125619	1363.578643166629	468.821302616631	959.134906615189	1438.014668298479	621.258307606765	958.351539734681	1494.285011774387	440.419963247078	1005.949723402402	938.811885349452	583.394063205246	1042.250453668417	960.855147312894	310.767532272528	1071.736555385361	748.619867676283	552.502792538898	1003.337403348666	631.367328122780	610.664230163455	1090.203085489221	588.005889908185	533.784982665795	1102.887040824023	502.564631321457	542.915005996135	1048.067379902428	731.459584834808	339.873098320255	945.137486972406	628.742462921853	264.306058681392	1000.313581285890	541.545248571042	337.707097020285	985.555291005738	475.704565420322	346.126944078006	954.443683775057	407.803716923676	334.068643105977	857.973924432761	302.471798868494	276.059310666461	889.498335907975	187.469816177690	351.714319271904	1081.845967288241	411.849160118638	554.113973827716	1019.697902112426	306.274915600133	622.762191792578	1069.921461246954	211.972192738737	564.882770346473	947.699470949576	42.050212674687	549.322506010471	1119.226973490301	99.131568882578	574.393813538327	1035.906588336577	37.118439477431	618.039171897539	1240.951064061736	51.983984072117	594.717389751574	747.467367240524	38.146824771179	386.397182692331	823.283746090455	35.041848512648	307.714108008438	906.581364149742	95.590699317236	337.392690228808	1035.204631968081	43.255118910805	310.659999292933	1178.492005774757	1152.724759712776	140.837739824138	1438.436781343457	1154.491069408203	163.481587667386	790.839328180581	1131.927493244739	696.093066698023	739.306198400676	874.882033787352	686.962493302400	
